# xmcd
#
# Track frame offsets:
#	225
#	15303
#	33845
#	52392
#	69542
#	85731
#	100914
#	119550
#	133155
#	150751
#	166494
#
# Disc length: 2420 seconds
#
# Revision: 2
# Processed by: cddbd v1.5.2PL0 Copyright (c) Steve Scherf et al.
# Submitted via: audiograbber 1.83.01
#
DISCID=8a09710b
DTITLE=André Sardet - Imagens
DYEAR=1996
DGENRE=Pop
TTITLE0=O Azul Do Céu
TTITLE1=Não Mexas No Tempo
TTITLE2=No Fundo Do Meu Mar
TTITLE3=Um Passo No Espaço
TTITLE4=Frágil
TTITLE5=Cantarei Mil Histórias
TTITLE6=Um Minuto De Prazer
TTITLE7=Zeca Chóninhas
TTITLE8=Um Querer Anormal
TTITLE9=Animais De Cifrões
TTITLE10=Album Fotográfico
EXTD=
EXTT0=
EXTT1=
EXTT2=
EXTT3=
EXTT4=
EXTT5=
EXTT6=
EXTT7=
EXTT8=
EXTT9=
EXTT10=
PLAYORDER=
